master.ufo
<glyph name="grave" format="1">
	<unicode hex="0060"/>
	<advance width="400"/>
	<outline>
		<contour>
			<point x="312" y="587" type="line"/>
			<point x="299" y="612"/>
			<point x="284" y="636"/>
			<point x="237" y="713" type="curve" smooth="yes"/>
			<point x="207" y="762"/>
			<point x="188" y="784"/>
			<point x="149" y="784" type="curve" smooth="yes"/>
			<point x="119" y="784"/>
			<point x="88" y="760"/>
			<point x="88" y="721" type="curve" smooth="yes"/>
			<point x="88" y="685"/>
			<point x="119" y="657"/>
			<point x="163" y="626" type="curve" smooth="yes"/>
			<point x="229" y="579"/>
			<point x="249" y="565"/>
			<point x="269" y="552" type="curve"/>
		</contour>
	</outline>
</glyph>
<glyph name="dieresis" format="1">
	<unicode hex="00A8"/>
	<advance width="400"/>
	<outline>
		<contour>
			<point x="326" y="567" type="curve" smooth="yes"/>
			<point x="371" y="567"/>
			<point x="410" y="595"/>
			<point x="410" y="646" type="curve" smooth="yes"/>
			<point x="410" y="696"/>
			<point x="371" y="725"/>
			<point x="326" y="725" type="curve" smooth="yes"/>
			<point x="283" y="725"/>
			<point x="242" y="696"/>
			<point x="242" y="646" type="curve" smooth="yes"/>
			<point x="242" y="595"/>
			<point x="283" y="567"/>
		</contour>
		<contour>
			<point x="74" y="567" type="curve" smooth="yes"/>
			<point x="119" y="567"/>
			<point x="158" y="595"/>
			<point x="158" y="646" type="curve" smooth="yes"/>
			<point x="158" y="696"/>
			<point x="119" y="725"/>
			<point x="74" y="725" type="curve" smooth="yes"/>
			<point x="31" y="725"/>
			<point x="-10" y="696"/>
			<point x="-10" y="646" type="curve" smooth="yes"/>
			<point x="-10" y="595"/>
			<point x="31" y="567"/>
		</contour>
	</outline>
</glyph>
<glyph name="Aacute" format="1">
	<unicode hex="00C1"/>
	<advance width="680"/>
	<outline>
		<contour>
			<point x="249" y="729" type="curve"/>
			<point x="280" y="684" type="line"/>
			<point x="336" y="708"/>
			<point x="391" y="730"/>
			<point x="448" y="754" type="curve" smooth="yes"/>
			<point x="499" y="775"/>
			<point x="507" y="804"/>
			<point x="507" y="823" type="curve" smooth="yes"/>
			<point x="507" y="851"/>
			<point x="482" y="881"/>
			<point x="446" y="881" type="curve" smooth="yes"/>
			<point x="420" y="881"/>
			<point x="400" y="872"/>
			<point x="366" y="840" type="curve" smooth="yes"/>
			<point x="329" y="805"/>
			<point x="288" y="767"/>
		</contour>
		<component base="A"/>
	</outline>
</glyph>
<glyph name="Acircumflex" format="1">
	<unicode hex="00C2"/>
	<advance width="680"/>
	<outline>
		<contour>
			<point x="385" y="882" type="line"/>
			<point x="303" y="882" type="line"/>
			<point x="146" y="715" type="line"/>
			<point x="180" y="675" type="line"/>
			<point x="394" y="792" type="line"/>
			<point x="294" y="792" type="line"/>
			<point x="508" y="675" type="line"/>
			<point x="542" y="715" type="line"/>
		</contour>
		<component base="A"/>
	</outline>
</glyph>
<glyph name="Aring" format="1">
	<unicode hex="00C5"/>
	<advance width="680"/>
	<outline>
		<contour>
			<point x="348" y="693" type="curve" smooth="yes"/>
			<point x="409" y="693"/>
			<point x="454" y="730"/>
			<point x="454" y="794" type="curve" smooth="yes"/>
			<point x="454" y="857"/>
			<point x="409" y="895"/>
			<point x="348" y="895" type="curve" smooth="yes"/>
			<point x="287" y="895"/>
			<point x="242" y="855"/>
			<point x="242" y="794" type="curve" smooth="yes"/>
			<point x="242" y="732"/>
			<point x="287" y="693"/>
		</contour>
		<contour>
			<point x="348" y="743" type="curve" smooth="yes"/>
			<point x="318" y="743"/>
			<point x="298" y="762"/>
			<point x="298" y="794" type="curve" smooth="yes"/>
			<point x="298" y="824"/>
			<point x="318" y="845"/>
			<point x="348" y="845" type="curve" smooth="yes"/>
			<point x="378" y="845"/>
			<point x="398" y="824"/>
			<point x="398" y="794" type="curve" smooth="yes"/>
			<point x="398" y="762"/>
			<point x="378" y="743"/>
		</contour>
		<component base="A"/>
	</outline>
</glyph>
<glyph name="Egrave" format="1">
	<unicode hex="00C8"/>
	<advance width="591"/>
	<outline>
		<contour>
			<point x="394" y="729" type="line"/>
			<point x="354" y="768"/>
			<point x="313" y="806"/>
			<point x="276" y="841" type="curve" smooth="yes"/>
			<point x="243" y="872"/>
			<point x="223" y="881"/>
			<point x="197" y="881" type="curve" smooth="yes"/>
			<point x="161" y="881"/>
			<point x="136" y="851"/>
			<point x="136" y="823" type="curve" smooth="yes"/>
			<point x="136" y="804"/>
			<point x="144" y="774"/>
			<point x="197" y="752" type="curve" smooth="yes"/>
			<point x="254" y="728"/>
			<point x="309" y="706"/>
			<point x="363" y="684" type="curve"/>
		</contour>
		<component base="E"/>
	</outline>
</glyph>
<glyph name="Eacute" format="1">
	<unicode hex="00C9"/>
	<advance width="591"/>
	<outline>
		<contour>
			<point x="206" y="729" type="curve"/>
			<point x="237" y="684" type="line"/>
			<point x="293" y="708"/>
			<point x="348" y="730"/>
			<point x="405" y="754" type="curve" smooth="yes"/>
			<point x="456" y="775"/>
			<point x="464" y="804"/>
			<point x="464" y="823" type="curve" smooth="yes"/>
			<point x="464" y="851"/>
			<point x="439" y="881"/>
			<point x="403" y="881" type="curve" smooth="yes"/>
			<point x="377" y="881"/>
			<point x="357" y="872"/>
			<point x="323" y="840" type="curve" smooth="yes"/>
			<point x="286" y="805"/>
			<point x="245" y="767"/>
		</contour>
		<component base="E"/>
	</outline>
</glyph>
<glyph name="Edieresis" format="1">
	<unicode hex="00CB"/>
	<advance width="591"/>
	<outline>
		<contour>
			<point x="175" y="700" type="curve" smooth="yes"/>
			<point x="218" y="700"/>
			<point x="255" y="727"/>
			<point x="255" y="775" type="curve" smooth="yes"/>
			<point x="255" y="823"/>
			<point x="218" y="850"/>
			<point x="175" y="850" type="curve" smooth="yes"/>
			<point x="134" y="850"/>
			<point x="95" y="823"/>
			<point x="95" y="775" type="curve" smooth="yes"/>
			<point x="95" y="727"/>
			<point x="134" y="700"/>
		</contour>
		<contour>
			<point x="435" y="700" type="curve" smooth="yes"/>
			<point x="478" y="700"/>
			<point x="515" y="727"/>
			<point x="515" y="775" type="curve" smooth="yes"/>
			<point x="515" y="823"/>
			<point x="478" y="850"/>
			<point x="435" y="850" type="curve" smooth="yes"/>
			<point x="394" y="850"/>
			<point x="355" y="823"/>
			<point x="355" y="775" type="curve" smooth="yes"/>
			<point x="355" y="727"/>
			<point x="394" y="700"/>
		</contour>
		<component base="E"/>
	</outline>
</glyph>
<glyph name="Igrave" format="1">
	<unicode hex="00CC"/>
	<advance width="395"/>
	<outline>
		<contour>
			<point x="296" y="729" type="line"/>
			<point x="256" y="768"/>
			<point x="215" y="806"/>
			<point x="178" y="841" type="curve" smooth="yes"/>
			<point x="145" y="872"/>
			<point x="125" y="881"/>
			<point x="99" y="881" type="curve" smooth="yes"/>
			<point x="63" y="881"/>
			<point x="38" y="851"/>
			<point x="38" y="823" type="curve" smooth="yes"/>
			<point x="38" y="804"/>
			<point x="46" y="774"/>
			<point x="99" y="752" type="curve" smooth="yes"/>
			<point x="156" y="728"/>
			<point x="211" y="706"/>
			<point x="265" y="684" type="curve"/>
		</contour>
		<component base="I"/>
	</outline>
</glyph>
<glyph name="Iacute" format="1">
	<unicode hex="00CD"/>
	<advance width="395"/>
	<outline>
		<contour>
			<point x="98" y="729" type="curve"/>
			<point x="129" y="684" type="line"/>
			<point x="185" y="708"/>
			<point x="240" y="730"/>
			<point x="297" y="754" type="curve" smooth="yes"/>
			<point x="348" y="775"/>
			<point x="356" y="804"/>
			<point x="356" y="823" type="curve" smooth="yes"/>
			<point x="356" y="851"/>
			<point x="331" y="881"/>
			<point x="295" y="881" type="curve" smooth="yes"/>
			<point x="269" y="881"/>
			<point x="249" y="872"/>
			<point x="215" y="840" type="curve" smooth="yes"/>
			<point x="178" y="805"/>
			<point x="137" y="767"/>
		</contour>
		<component base="I"/>
	</outline>
</glyph>
<glyph name="Idieresis" format="1">
	<unicode hex="00CF"/>
	<advance width="395"/>
	<outline>
		<contour>
			<point x="68" y="700" type="curve" smooth="yes"/>
			<point x="111" y="700"/>
			<point x="148" y="727"/>
			<point x="148" y="775" type="curve" smooth="yes"/>
			<point x="148" y="823"/>
			<point x="111" y="850"/>
			<point x="68" y="850" type="curve" smooth="yes"/>
			<point x="27" y="850"/>
			<point x="-12" y="823"/>
			<point x="-12" y="775" type="curve" smooth="yes"/>
			<point x="-12" y="727"/>
			<point x="27" y="700"/>
		</contour>
		<contour>
			<point x="328" y="700" type="curve" smooth="yes"/>
			<point x="371" y="700"/>
			<point x="408" y="727"/>
			<point x="408" y="775" type="curve" smooth="yes"/>
			<point x="408" y="823"/>
			<point x="371" y="850"/>
			<point x="328" y="850" type="curve" smooth="yes"/>
			<point x="287" y="850"/>
			<point x="248" y="823"/>
			<point x="248" y="775" type="curve" smooth="yes"/>
			<point x="248" y="727"/>
			<point x="287" y="700"/>
		</contour>
		<component base="I"/>
	</outline>
</glyph>
<glyph name="Ugrave" format="1">
	<unicode hex="00D9"/>
	<advance width="732"/>
	<outline>
		<contour>
			<point x="505" y="729" type="line"/>
			<point x="465" y="768"/>
			<point x="424" y="806"/>
			<point x="387" y="841" type="curve" smooth="yes"/>
			<point x="354" y="872"/>
			<point x="334" y="881"/>
			<point x="308" y="881" type="curve" smooth="yes"/>
			<point x="272" y="881"/>
			<point x="247" y="851"/>
			<point x="247" y="823" type="curve" smooth="yes"/>
			<point x="247" y="804"/>
			<point x="255" y="774"/>
			<point x="308" y="752" type="curve" smooth="yes"/>
			<point x="365" y="728"/>
			<point x="420" y="706"/>
			<point x="474" y="684" type="curve"/>
		</contour>
		<component base="U"/>
	</outline>
</glyph>
<glyph name="agrave" format="1">
	<unicode hex="00E0"/>
	<advance width="540"/>
	<outline>
		<contour>
			<point x="339" y="587" type="line"/>
			<point x="326" y="612"/>
			<point x="311" y="636"/>
			<point x="264" y="713" type="curve" smooth="yes"/>
			<point x="234" y="762"/>
			<point x="215" y="784"/>
			<point x="176" y="784" type="curve" smooth="yes"/>
			<point x="146" y="784"/>
			<point x="115" y="760"/>
			<point x="115" y="721" type="curve" smooth="yes"/>
			<point x="115" y="685"/>
			<point x="146" y="657"/>
			<point x="190" y="626" type="curve" smooth="yes"/>
			<point x="256" y="579"/>
			<point x="276" y="565"/>
			<point x="296" y="552" type="curve"/>
		</contour>
		<component base="a"/>
	</outline>
</glyph>
<glyph name="aacute" format="1">
	<unicode hex="00E1"/>
	<advance width="540"/>
	<outline>
		<contour>
			<point x="191" y="587" type="curve"/>
			<point x="234" y="552" type="line"/>
			<point x="254" y="565"/>
			<point x="274" y="579"/>
			<point x="340" y="625" type="curve" smooth="yes"/>
			<point x="384" y="656"/>
			<point x="415" y="685"/>
			<point x="415" y="721" type="curve" smooth="yes"/>
			<point x="415" y="760"/>
			<point x="384" y="784"/>
			<point x="354" y="784" type="curve" smooth="yes"/>
			<point x="315" y="784"/>
			<point x="295" y="762"/>
			<point x="265" y="712" type="curve" smooth="yes"/>
			<point x="218" y="634"/>
			<point x="204" y="611"/>
		</contour>
		<component base="a"/>
	</outline>
</glyph>
<glyph name="acircumflex" format="1">
	<unicode hex="00E2"/>
	<advance width="540"/>
	<outline>
		<contour>
			<point x="418" y="544" type="line"/>
			<point x="458" y="582" type="line"/>
			<point x="318" y="757" type="line"/>
			<point x="242" y="757" type="line"/>
			<point x="102" y="582" type="line"/>
			<point x="142" y="544" type="line"/>
			<point x="330" y="679" type="line"/>
			<point x="230" y="679" type="line"/>
		</contour>
		<component base="a"/>
	</outline>
</glyph>
<glyph name="atilde" format="1">
	<unicode hex="00E3"/>
	<advance width="540"/>
	<outline>
		<contour>
			<point x="88" y="589" type="curve"/>
			<point x="135" y="569" type="line"/>
			<point x="147" y="600"/>
			<point x="168" y="619"/>
			<point x="196" y="619" type="curve" smooth="yes"/>
			<point x="221" y="619"/>
			<point x="242" y="605"/>
			<point x="260" y="594" type="curve" smooth="yes"/>
			<point x="281" y="582"/>
			<point x="310" y="570"/>
			<point x="337" y="570" type="curve" smooth="yes"/>
			<point x="393" y="570"/>
			<point x="442" y="622"/>
			<point x="453" y="714" type="curve"/>
			<point x="406" y="734" type="line"/>
			<point x="394" y="702"/>
			<point x="372" y="683"/>
			<point x="344" y="683" type="curve" smooth="yes"/>
			<point x="320" y="683"/>
			<point x="298" y="697"/>
			<point x="280" y="708" type="curve" smooth="yes"/>
			<point x="259" y="720"/>
			<point x="236" y="732"/>
			<point x="207" y="732" type="curve" smooth="yes"/>
			<point x="148" y="732"/>
			<point x="99" y="682"/>
		</contour>
		<component base="a"/>
	</outline>
</glyph>
<glyph name="aring" format="1">
	<unicode hex="00E5"/>
	<advance width="540"/>
	<outline>
		<contour>
			<point x="270" y="610" type="curve" smooth="yes"/>
			<point x="231" y="610"/>
			<point x="210" y="643"/>
			<point x="210" y="674" type="curve" smooth="yes"/>
			<point x="210" y="707"/>
			<point x="231" y="738"/>
			<point x="270" y="738" type="curve" smooth="yes"/>
			<point x="309" y="738"/>
			<point x="330" y="707"/>
			<point x="330" y="674" type="curve" smooth="yes"/>
			<point x="330" y="643"/>
			<point x="309" y="610"/>
		</contour>
		<contour>
			<point x="270" y="554" type="curve" smooth="yes"/>
			<point x="342" y="554"/>
			<point x="397" y="598"/>
			<point x="397" y="674" type="curve" smooth="yes"/>
			<point x="397" y="750"/>
			<point x="342" y="794"/>
			<point x="270" y="794" type="curve" smooth="yes"/>
			<point x="198" y="794"/>
			<point x="143" y="747"/>
			<point x="143" y="674" type="curve" smooth="yes"/>
			<point x="143" y="601"/>
			<point x="198" y="554"/>
		</contour>
		<component base="a"/>
	</outline>
</glyph>
<glyph name="ccedilla" format="1">
	<unicode hex="00E7"/>
	<advance width="523"/>
	<outline>
		<contour>
			<point x="229" y="-90" type="line"/>
			<point x="268" y="-92"/>
			<point x="289" y="-106"/>
			<point x="289" y="-135" type="curve" smooth="yes"/>
			<point x="289" y="-156"/>
			<point x="274" y="-170"/>
			<point x="239" y="-170" type="curve" smooth="yes"/>
			<point x="221" y="-170"/>
			<point x="204" y="-167"/>
			<point x="184" y="-160" type="curve"/>
			<point x="172" y="-212" type="line"/>
			<point x="198" y="-222"/>
			<point x="222" y="-227"/>
			<point x="256" y="-227" type="curve" smooth="yes"/>
			<point x="352" y="-227"/>
			<point x="400" y="-188"/>
			<point x="400" y="-135" type="curve" smooth="yes"/>
			<point x="400" y="-92"/>
			<point x="367" y="-53"/>
			<point x="258" y="-43" type="curve"/>
			<point x="293" y="-71" type="line"/>
			<point x="302" y="5" type="line"/>
			<point x="244" y="5" type="line"/>
		</contour>
		<component base="c"/>
	</outline>
</glyph>
<glyph name="eacute" format="1">
	<unicode hex="00E9"/>
	<advance width="526"/>
	<outline>
		<contour>
			<point x="204" y="587" type="curve"/>
			<point x="247" y="552" type="line"/>
			<point x="267" y="565"/>
			<point x="287" y="579"/>
			<point x="353" y="625" type="curve" smooth="yes"/>
			<point x="397" y="656"/>
			<point x="428" y="685"/>
			<point x="428" y="721" type="curve" smooth="yes"/>
			<point x="428" y="760"/>
			<point x="397" y="784"/>
			<point x="367" y="784" type="curve" smooth="yes"/>
			<point x="328" y="784"/>
			<point x="308" y="762"/>
			<point x="278" y="712" type="curve" smooth="yes"/>
			<point x="231" y="634"/>
			<point x="217" y="611"/>
		</contour>
		<component base="e"/>
	</outline>
</glyph>
<glyph name="igrave" format="1">
	<unicode hex="00EC"/>
	<advance width="324"/>
	<outline>
		<contour>
			<point x="241" y="587" type="line"/>
			<point x="228" y="612"/>
			<point x="213" y="636"/>
			<point x="166" y="713" type="curve" smooth="yes"/>
			<point x="136" y="762"/>
			<point x="117" y="784"/>
			<point x="78" y="784" type="curve" smooth="yes"/>
			<point x="48" y="784"/>
			<point x="17" y="760"/>
			<point x="17" y="721" type="curve" smooth="yes"/>
			<point x="17" y="685"/>
			<point x="48" y="657"/>
			<point x="92" y="626" type="curve" smooth="yes"/>
			<point x="158" y="579"/>
			<point x="178" y="565"/>
			<point x="198" y="552" type="curve"/>
		</contour>
		<component base="dotlessi"/>
	</outline>
</glyph>
<glyph name="uacute" format="1">
	<unicode hex="00FA"/>
	<advance width="617"/>
	<outline>
		<contour>
			<point x="219" y="587" type="curve"/>
			<point x="262" y="552" type="line"/>
			<point x="282" y="565"/>
			<point x="302" y="579"/>
			<point x="368" y="625" type="curve" smooth="yes"/>
			<point x="412" y="656"/>
			<point x="443" y="685"/>
			<point x="443" y="721" type="curve" smooth="yes"/>
			<point x="443" y="760"/>
			<point x="412" y="784"/>
			<point x="382" y="784" type="curve" smooth="yes"/>
			<point x="343" y="784"/>
			<point x="323" y="762"/>
			<point x="293" y="712" type="curve" smooth="yes"/>
			<point x="246" y="634"/>
			<point x="232" y="611"/>
		</contour>
		<component base="u"/>
	</outline>
</glyph>
<glyph name="ucircumflex" format="1">
	<unicode hex="00FB"/>
	<advance width="617"/>
	<outline>
		<contour>
			<point x="456" y="544" type="line"/>
			<point x="496" y="582" type="line"/>
			<point x="356" y="757" type="line"/>
			<point x="280" y="757" type="line"/>
			<point x="140" y="582" type="line"/>
			<point x="180" y="544" type="line"/>
			<point x="368" y="679" type="line"/>
			<point x="268" y="679" type="line"/>
		</contour>
		<component base="u"/>
	</outline>
</glyph>
<glyph name="circumflex" format="1">
	<unicode hex="02C6"/>
	<advance width="400"/>
	<outline>
		<contour>
			<point x="338" y="544" type="line"/>
			<point x="378" y="582" type="line"/>
			<point x="238" y="757" type="line"/>
			<point x="162" y="757" type="line"/>
			<point x="22" y="582" type="line"/>
			<point x="62" y="544" type="line"/>
			<point x="250" y="679" type="line"/>
			<point x="150" y="679" type="line"/>
		</contour>
	</outline>
</glyph>
<glyph name="tilde" format="1">
	<unicode hex="02DC"/>
	<advance width="400"/>
	<outline>
		<contour>
			<point x="20" y="589" type="curve"/>
			<point x="67" y="569" type="line"/>
			<point x="79" y="600"/>
			<point x="100" y="619"/>
			<point x="128" y="619" type="curve" smooth="yes"/>
			<point x="153" y="619"/>
			<point x="174" y="605"/>
			<point x="192" y="594" type="curve" smooth="yes"/>
			<point x="213" y="582"/>
			<point x="242" y="570"/>
			<point x="269" y="570" type="curve" smooth="yes"/>
			<point x="325" y="570"/>
			<point x="374" y="622"/>
			<point x="385" y="714" type="curve"/>
			<point x="338" y="734" type="line"/>
			<point x="326" y="702"/>
			<point x="304" y="683"/>
			<point x="276" y="683" type="curve" smooth="yes"/>
			<point x="252" y="683"/>
			<point x="230" y="697"/>
			<point x="212" y="708" type="curve" smooth="yes"/>
			<point x="191" y="720"/>
			<point x="168" y="732"/>
			<point x="139" y="732" type="curve" smooth="yes"/>
			<point x="80" y="732"/>
			<point x="31" y="682"/>
		</contour>
	</outline>
</glyph>
<glyph name="perthousand" format="1">
	<unicode hex="2030"/>
	<advance width="1231"/>
	<outline>
		<contour>
			<point x="159" y="436" type="curve" smooth="yes"/>
			<point x="159" y="574"/>
			<point x="177" y="606"/>
			<point x="204" y="606" type="curve" smooth="yes"/>
			<point x="231" y="606"/>
			<point x="251" y="573"/>
			<point x="251" y="436" type="curve" smooth="yes"/>
			<point x="251" y="300"/>
			<point x="231" y="268"/>
			<point x="204" y="268" type="curve" smooth="yes"/>
			<point x="177" y="268"/>
			<point x="159" y="299"/>
		</contour>
		<contour>
			<point x="204" y="640" type="curve" smooth="yes"/>
			<point x="119" y="640"/>
			<point x="47" y="576"/>
			<point x="47" y="436" type="curve" smooth="yes"/>
			<point x="47" y="298"/>
			<point x="119" y="234"/>
			<point x="204" y="234" type="curve" smooth="yes"/>
			<point x="288" y="234"/>
			<point x="363" y="298"/>
			<point x="363" y="436" type="curve" smooth="yes"/>
			<point x="363" y="576"/>
			<point x="288" y="640"/>
		</contour>
		<contour>
			<point x="629" y="193" type="curve" smooth="yes"/>
			<point x="629" y="331"/>
			<point x="647" y="363"/>
			<point x="674" y="363" type="curve" smooth="yes"/>
			<point x="701" y="363"/>
			<point x="721" y="330"/>
			<point x="721" y="193" type="curve" smooth="yes"/>
			<point x="721" y="57"/>
			<point x="701" y="25"/>
			<point x="674" y="25" type="curve" smooth="yes"/>
			<point x="647" y="25"/>
			<point x="629" y="56"/>
		</contour>
		<contour>
			<point x="674" y="397" type="curve" smooth="yes"/>
			<point x="589" y="397"/>
			<point x="517" y="333"/>
			<point x="517" y="193" type="curve" smooth="yes"/>
			<point x="517" y="55"/>
			<point x="589" y="-9"/>
			<point x="674" y="-9" type="curve" smooth="yes"/>
			<point x="758" y="-9"/>
			<point x="833" y="55"/>
			<point x="833" y="193" type="curve" smooth="yes"/>
			<point x="833" y="333"/>
			<point x="758" y="397"/>
		</contour>
		<contour>
			<point x="990" y="193" type="curve" smooth="yes"/>
			<point x="990" y="331"/>
			<point x="1008" y="363"/>
			<point x="1035" y="363" type="curve" smooth="yes"/>
			<point x="1062" y="363"/>
			<point x="1082" y="330"/>
			<point x="1082" y="193" type="curve" smooth="yes"/>
			<point x="1082" y="57"/>
			<point x="1062" y="25"/>
			<point x="1035" y="25" type="curve" smooth="yes"/>
			<point x="1008" y="25"/>
			<point x="990" y="56"/>
		</contour>
		<contour>
			<point x="1035" y="397" type="curve" smooth="yes"/>
			<point x="950" y="397"/>
			<point x="878" y="333"/>
			<point x="878" y="193" type="curve" smooth="yes"/>
			<point x="878" y="55"/>
			<point x="950" y="-9"/>
			<point x="1035" y="-9" type="curve" smooth="yes"/>
			<point x="1119" y="-9"/>
			<point x="1194" y="55"/>
			<point x="1194" y="193" type="curve" smooth="yes"/>
			<point x="1194" y="333"/>
			<point x="1119" y="397"/>
		</contour>
		<component base="fraction" xOffset="374"/>
	</outline>
</glyph>
